<svg fill="#fff" xmlns="http://www.w3.org/2000/svg">
    <path id="svg_1" d="M 3.514 9 L 3.514 15 L 7.514 15 L 12.514 20 L 12.514 4 L 7.514 9 L 3.514 9 L 3.514 9 Z M 15.855 11.941 C 15.855 10.171 14.835 8.651 13.355 7.911 L 13.355 15.961 C 14.835 15.231 15.855 13.711 15.855 11.941 Z M 13.355 3.171 L 13.355 5.231 C 16.245 6.091 18.355 8.771 18.355 11.941 C 18.355 15.111 16.245 17.791 13.355 18.651 L 13.355 20.711 C 17.365 19.801 20.355 16.221 20.355 11.941 C 20.355 7.661 17.365 4.081 13.355 3.171 Z"/>
</svg>